<svg width="32" height="32" viewBox="0 0 32 32" fill="none" xmlns="http://www.w3.org/2000/svg">
<g clipPath="url(#clip0_60_206)">
<path fillRule="evenodd" clipRule="evenodd" d="M14.8275 27.4869C14.5633 27.3229 14.1743 27.1004 13.6905 26.8772C12.7123 26.4256 11.4084 25.9998 9.99935 25.9998C8.29414 25.9998 6.74932 26.6232 5.76032 27.1488C5.06872 27.5164 4.30492 27.4334 3.7411 27.1225C3.17079 26.8078 2.66602 26.1766 2.66602 25.3332V8.6665C2.66602 7.83818 3.05943 6.9824 3.8627 6.49446C4.89548 5.86712 7.21764 4.6665 9.99935 4.6665C12.1077 4.6665 14.1923 5.34661 15.9993 6.41266C17.8064 5.34661 19.8909 4.6665 21.9993 4.6665C24.7811 4.6665 27.1032 5.86712 28.136 6.49446C28.9392 6.9824 29.3327 7.83818 29.3327 8.6665V25.3332C29.3327 26.1766 28.8279 26.8078 28.2576 27.1225C27.6937 27.4334 26.93 27.5164 26.2384 27.1488C25.2493 26.6232 23.7045 25.9998 21.9993 25.9998C20.5903 25.9998 19.2864 26.4256 18.3081 26.8772C17.8244 27.1004 17.4353 27.3229 17.1712 27.4869C16.7924 27.722 16.4729 27.9998 16 27.9998C15.5261 27.9998 15.2071 27.7225 14.8275 27.4869ZM5.33268 24.3913V8.72224C6.23054 8.18952 8.00003 7.33317 9.99935 7.33317C11.6399 7.33317 13.2636 7.89008 14.666 8.72224V24.3913C13.4864 23.8633 11.8481 23.3332 9.99935 23.3332C8.15756 23.3332 6.52114 23.8593 5.33268 24.3913ZM17.3327 24.3913C18.5123 23.8633 20.1505 23.3332 21.9993 23.3332C23.8411 23.3332 25.4776 23.8593 26.666 24.3913V8.72224C25.7681 8.18952 23.9987 7.33317 21.9993 7.33317C20.3588 7.33317 18.7351 7.89008 17.3327 8.72224V24.3913Z" fill="white"/>
</g>
<defs>
<clipPath id="clip0_60_206">
<rect width="32" height="32" fill="white"/>
</clipPath>
</defs>
</svg>
