<svg width="37" height="24" viewBox="0 0 37 24" fill="none" xmlns="http://www.w3.org/2000/svg">
<path fillRule="evenodd" clipRule="evenodd" d="M0.329378 1.09355C0.599069 0.78544 1.00532 0.578687 1.45885 0.51873C1.91238 0.458772 2.37608 0.550516 2.74803 0.773799L36.2442 20.8779C36.4355 20.9862 36.5987 21.1251 36.7241 21.2865C36.8495 21.448 36.9346 21.6286 36.9743 21.8177C37.0141 22.0069 37.0076 22.2007 36.9554 22.3878C36.9031 22.5749 36.8062 22.7513 36.6702 22.9068C36.5343 23.0622 36.3621 23.1935 36.1638 23.2929C35.9656 23.3922 35.7453 23.4576 35.5161 23.4851C35.2868 23.5127 35.0532 23.5019 34.8291 23.4533C34.605 23.4047 34.3949 23.3194 34.2113 23.2023L29.0182 20.0852C26.2092 21.9252 22.6193 23.4761 18.4797 23.4761C13.9034 23.4761 10.0017 21.5768 7.08405 19.4974C4.15025 17.4104 2.03191 15.0075 0.992371 13.7113C0.582072 13.202 0.36309 12.6033 0.36309 11.9909C0.36309 11.3785 0.582072 10.7799 0.992371 10.2706C1.80783 9.25008 3.2909 7.55176 5.3076 5.85727L0.715161 3.09822C0.343424 2.87469 0.0939742 2.53797 0.0216348 2.16207C-0.0507047 1.78617 0.0599855 1.40184 0.329378 1.09355ZM8.1513 7.56133C6.55321 8.8686 5.12117 10.3083 3.87766 11.8579C3.84516 11.896 3.82743 11.9414 3.82684 11.9881C3.82684 12.0283 3.8407 12.0742 3.87766 12.1183C4.82941 13.3073 6.74677 15.469 9.3433 17.3204C11.9537 19.1834 15.0769 20.6041 18.4797 20.6041C21.2402 20.6041 23.8159 19.6698 26.0798 18.3237L20.9353 15.2334C20.1553 15.6395 19.2467 15.8431 18.3261 15.818C17.4056 15.7929 16.515 15.5404 15.7689 15.0928C15.0228 14.6452 14.4551 14.0229 14.1387 13.306C13.8224 12.589 13.7718 11.81 13.9935 11.069L8.14899 7.56133H8.1513ZM18.4797 3.37202C17.2877 3.37202 16.1303 3.54434 15.0169 3.8526C14.7994 3.91744 14.5685 3.94556 14.3378 3.93533C14.107 3.92509 13.8811 3.87669 13.6732 3.79299C13.4654 3.70929 13.2798 3.59197 13.1275 3.44794C12.9752 3.30391 12.8591 3.13608 12.7863 2.95433C12.7134 2.77257 12.6851 2.58057 12.7031 2.38962C12.721 2.19867 12.7849 2.01263 12.891 1.84245C12.997 1.67228 13.143 1.5214 13.3205 1.3987C13.4979 1.27601 13.7032 1.18397 13.9242 1.12801C15.392 0.716797 16.9303 0.504729 18.4797 0.5C23.0559 0.5 26.9576 2.39936 29.8753 4.4787C32.8091 6.56761 34.9274 8.96862 35.9669 10.2668C36.3774 10.7764 36.5965 11.3753 36.5965 11.9881C36.5965 12.6008 36.3774 13.1998 35.9669 13.7094C35.7128 14.0272 35.394 14.4082 35.0198 14.8333C34.8853 14.9854 34.7159 15.1141 34.5214 15.2119C34.3268 15.3098 34.1109 15.375 33.886 15.4037C33.6611 15.4324 33.4316 15.4241 33.2105 15.3793C32.9895 15.3345 32.7812 15.254 32.5977 15.1425C32.4142 15.031 32.2589 14.8906 32.1409 14.7294C32.0228 14.5681 31.9442 14.3892 31.9095 14.2028C31.8749 14.0164 31.8849 13.8261 31.9389 13.6429C31.993 13.4597 32.0901 13.2871 32.2246 13.135C32.5665 12.7501 32.853 12.4036 33.0817 12.1202C33.1143 12.0818 33.1318 12.036 33.1318 11.989C33.1318 11.9421 33.1143 11.8963 33.0817 11.8579C32.1299 10.6689 30.2125 8.50718 27.616 6.65569C25.0056 4.79271 21.8824 3.37202 18.4797 3.37202Z" fill="#C6C5C5"/>
</svg>
