<svg width="33" height="27" viewBox="0 0 33 27" fill="none" xmlns="http://www.w3.org/2000/svg">
<path d="M29.7 0C31.4397 0 32.865 1.37679 32.9909 3.12312L33 3.375V23.625C33 25.4043 31.6538 26.8619 29.9463 26.9907L29.7 27H3.3C1.5603 27 0.135028 25.6233 0.00905153 23.8769L0 23.625V3.375C0 1.59576 1.3462 0.138096 3.05372 0.00925684L3.3 0H29.7ZM29.7 5.76153L18.25 17.4717C17.2834 18.4602 15.7164 18.4602 14.7498 17.4717L3.3 5.76153V23.625H29.7V5.76153ZM27.3666 3.375H5.63325L16.5 14.4887L27.3666 3.375Z" fill="#C6C5C5"/>
</svg>
