<svg width="34" height="29" viewBox="0 0 34 29" fill="none" xmlns="http://www.w3.org/2000/svg">
<path fillRule="evenodd" clipRule="evenodd" d="M33.9646 2.94956C34.2896 0.98267 32.3168 -0.570877 30.4766 0.202697L1.55154 12.3621C-0.465432 13.2099 -0.568782 16.121 1.55298 16.9991C3.12282 17.6488 5.52538 18.6014 7.93495 19.3946C9.91141 20.0451 12.066 20.649 13.7921 20.8199C14.2646 21.3843 14.8593 21.9264 15.4635 22.4224C16.3888 23.1822 17.503 23.966 18.653 24.7163C20.9562 26.2188 23.5117 27.6564 25.2341 28.5905C27.2925 29.7067 29.7567 28.4214 30.1268 26.1814L33.9646 2.94956ZM4.79553 14.663L30.3773 3.90912L26.7952 25.5934C25.1063 24.6764 22.6715 23.3031 20.5035 21.8889C19.4068 21.1732 18.4051 20.4646 17.6123 19.8138C17.3299 19.5819 17.0909 19.3708 16.8918 19.1818L23.592 12.4923C24.2526 11.8328 24.2526 10.7635 23.592 10.104C22.9315 9.44453 21.8604 9.44453 21.1999 10.104L13.8618 17.4303C12.6212 17.2718 10.8917 16.8115 8.99423 16.187C7.53393 15.7062 6.06566 15.1602 4.79553 14.663Z" fill="#C6C5C5"/>
</svg>
