<svg width="33" height="33" viewBox="0 0 33 33" fill="none" xmlns="http://www.w3.org/2000/svg">
<path fillRule="evenodd" clipRule="evenodd" d="M10.4245 22.5778C16.7813 28.9331 22.6703 29.629 24.3987 29.6926C26.4888 29.7694 28.6207 28.0639 29.542 26.316C28.0716 24.5906 26.1562 23.2524 24.0576 21.8015C22.8207 23.0381 21.2954 25.3356 19.2627 24.5136C18.1084 24.0469 15.2552 22.7333 12.7621 20.2409C10.2689 17.7482 8.95507 14.8956 8.48829 13.7418C7.66545 11.7078 9.96863 10.1801 11.2064 8.94256C9.75592 6.80968 8.43945 4.84585 6.71728 3.44951C4.94633 4.37572 3.2303 6.49096 3.30817 8.60687C3.37178 10.3348 4.06781 16.2226 10.4245 22.5778ZM24.2771 32.9953C21.8954 32.9077 15.1504 31.9767 8.08698 24.9148C1.0235 17.853 0.0922588 11.1096 0.00462205 8.72842C-0.128932 5.10039 2.65091 1.57526 5.8635 0.198762C6.61733 -0.124239 7.53037 -0.0651281 8.25216 0.461247C10.9094 2.3991 12.7427 5.33686 14.3172 7.63716C14.9879 8.6172 14.8772 9.9467 14.0256 10.7981L11.7836 13.0395C12.3039 14.1885 13.3655 16.1701 15.0997 17.9037C16.8337 19.6375 18.8157 20.6988 19.965 21.2191L22.2058 18.9787C23.0582 18.1266 24.3938 18.0143 25.3762 18.6948C27.7234 20.3205 30.4799 22.1275 32.4898 24.701C33.0543 25.4238 33.1383 26.369 32.8016 27.1547C31.4184 30.3814 27.9182 33.1293 24.2771 32.9953Z" fill="#C6C5C5"/>
</svg>
