<svg width="33" height="33" viewBox="0 0 33 33" fill="none" xmlns="http://www.w3.org/2000/svg">
<path d="M16.5 0C25.6126 0 33 7.3873 33 16.5C33 25.6126 25.6126 33 16.5 33C13.59 33 10.8522 32.2454 8.47592 30.9205L7.97232 30.628L2.96959 32.0994C1.76444 32.4539 0.640564 31.4043 0.857787 30.2104L0.900586 30.0303L2.37197 25.0277C0.866333 22.538 0 19.6178 0 16.5C0 7.3873 7.3873 0 16.5 0ZM16.5 3.3C9.20984 3.3 3.3 9.20984 3.3 16.5C3.3 19.1019 4.05108 21.5233 5.34762 23.565C5.67493 24.0805 5.81417 24.7138 5.70326 25.3422L5.64023 25.6108L4.91151 28.0884L7.38915 27.3598C8.10274 27.1499 8.84588 27.2783 9.43498 27.6524C11.4768 28.9489 13.8981 29.7 16.5 29.7C23.7902 29.7 29.7 23.7902 29.7 16.5C29.7 9.20984 23.7902 3.3 16.5 3.3ZM11.7177 8.55373C12.0738 8.40111 12.5052 8.42903 12.8462 8.67778C13.6785 9.28491 14.3393 10.0993 14.9068 10.8957L15.446 11.6778C15.5317 11.8044 15.6155 11.9284 15.6978 12.0488C15.9989 12.4892 15.9642 13.0744 15.623 13.4738L15.498 13.5996L13.9743 14.7312C13.8234 14.8434 13.773 15.0472 13.8636 15.2122C14.2085 15.8397 14.8226 16.7734 15.5253 17.4761C16.2289 18.1797 17.2069 18.8336 17.8774 19.2171C18.0223 19.3 18.1984 19.2738 18.3167 19.1659L18.38 19.0915L19.3713 17.5816C19.7513 17.0758 20.4612 16.9653 20.9771 17.3224L21.8728 17.9468C22.7629 18.582 23.6198 19.2649 24.2971 20.1323C24.5639 20.474 24.6035 20.9207 24.4444 21.2919C23.791 22.8167 22.1372 24.1152 20.4171 24.0519L20.1555 24.0368L19.8388 24.0054C19.7817 23.9986 19.7224 23.9908 19.661 23.9821L19.2688 23.9171C17.7447 23.6293 15.2998 22.7651 12.7681 20.2335C10.2365 17.7018 9.37227 15.2568 9.08446 13.7327L9.01943 13.3405L8.97808 12.9977L8.95547 12.7081C8.953 12.6645 8.95109 12.6233 8.94967 12.5845C8.88627 10.8619 10.1919 9.20766 11.7177 8.55373Z" fill="#C6C5C5"/>
</svg>
